<svg data-v-423bf9ae="" xmlns="http://www.w3.org/2000/svg" viewBox="0 0 301.1823812134972 170" class="iconAbove"><!----><!----><!----><g data-v-423bf9ae="" id="a5b8100d-faae-4b7a-8eb7-7db7c6f1446b" fill="black" transform="matrix(4.705882704931724,0,0,4.705882704931724,-3.294118880827938,90.83849441798895)"><path d="M4.17 14.11L4.17 14.11Q3.12 14.11 2.34 13.78L2.34 13.78L2.34 13.78Q1.55 13.44 1.13 12.82L1.13 12.82L1.13 12.82Q0.70 12.21 0.70 11.38L0.70 11.38L0.70 11.05L0.70 11.05Q0.70 10.95 0.76 10.89L0.76 10.89L0.76 10.89Q0.81 10.84 0.91 10.84L0.91 10.84L1.81 10.84L1.81 10.84Q1.90 10.84 1.96 10.89L1.96 10.89L1.96 10.89Q2.02 10.95 2.02 11.05L2.02 11.05L2.02 11.31L2.02 11.31Q2.02 12.03 2.63 12.49L2.63 12.49L2.63 12.49Q3.25 12.95 4.27 12.95L4.27 12.95L4.27 12.95Q5.24 12.95 5.73 12.54L5.73 12.54L5.73 12.54Q6.22 12.14 6.22 11.48L6.22 11.48L6.22 11.48Q6.22 11.05 5.96 10.74L5.96 10.74L5.96 10.74Q5.71 10.43 5.23 10.17L5.23 10.17L5.23 10.17Q4.75 9.91 3.82 9.55L3.82 9.55L3.82 9.55Q2.80 9.16 2.21 8.83L2.21 8.83L2.21 8.83Q1.61 8.51 1.22 7.99L1.22 7.99L1.22 7.99Q0.83 7.46 0.83 6.66L0.83 6.66L0.83 6.66Q0.83 5.46 1.69 4.77L1.69 4.77L1.69 4.77Q2.55 4.09 4.02 4.09L4.02 4.09L4.02 4.09Q5.05 4.09 5.84 4.44L5.84 4.44L5.84 4.44Q6.62 4.79 7.05 5.42L7.05 5.42L7.05 5.42Q7.48 6.05 7.48 6.87L7.48 6.87L7.48 7.08L7.48 7.08Q7.48 7.18 7.42 7.24L7.42 7.24L7.42 7.24Q7.36 7.29 7.27 7.29L7.27 7.29L6.36 7.29L6.36 7.29Q6.26 7.29 6.20 7.25L6.20 7.25L6.20 7.25Q6.15 7.20 6.15 7.11L6.15 7.11L6.15 6.94L6.15 6.94Q6.15 6.22 5.57 5.73L5.57 5.73L5.57 5.73Q4.98 5.25 3.96 5.25L3.96 5.25L3.96 5.25Q3.09 5.25 2.62 5.61L2.62 5.61L2.62 5.61Q2.14 5.96 2.14 6.64L2.14 6.64L2.14 6.64Q2.14 7.10 2.38 7.39L2.38 7.39L2.38 7.39Q2.62 7.69 3.09 7.92L3.09 7.92L3.09 7.92Q3.56 8.15 4.52 8.51L4.52 8.51L4.52 8.51Q5.52 8.90 6.13 9.23L6.13 9.23L6.13 9.23Q6.75 9.56 7.15 10.10L7.15 10.10L7.15 10.10Q7.56 10.64 7.56 11.44L7.56 11.44L7.56 11.44Q7.56 12.24 7.15 12.84L7.15 12.84L7.15 12.84Q6.75 13.44 5.98 13.78L5.98 13.78L5.98 13.78Q5.21 14.11 4.17 14.11L4.17 14.11ZM12.73 7.77L12.73 7.77Q12.73 7.87 12.67 7.92L12.67 7.92L12.67 7.92Q12.61 7.98 12.52 7.98L12.52 7.98L11.09 7.98L11.09 7.98Q11.02 7.98 11.02 8.05L11.02 8.05L11.02 11.70L11.02 11.70Q11.02 12.31 11.28 12.56L11.28 12.56L11.28 12.56Q11.54 12.81 12.11 12.81L12.11 12.81L12.45 12.81L12.45 12.81Q12.54 12.81 12.60 12.87L12.60 12.87L12.60 12.87Q12.66 12.92 12.66 13.02L12.66 13.02L12.66 13.75L12.66 13.75Q12.66 13.94 12.45 13.97L12.45 13.97L11.87 13.99L11.87 13.99Q10.79 13.99 10.26 13.61L10.26 13.61L10.26 13.61Q9.73 13.23 9.73 12.19L9.73 12.19L9.73 8.05L9.73 8.05Q9.73 7.98 9.66 7.98L9.66 7.98L8.89 7.98L8.89 7.98Q8.79 7.98 8.74 7.92L8.74 7.92L8.74 7.92Q8.68 7.87 8.68 7.77L8.68 7.77L8.68 7.08L8.68 7.08Q8.68 6.99 8.74 6.93L8.74 6.93L8.74 6.93Q8.79 6.87 8.89 6.87L8.89 6.87L9.66 6.87L9.66 6.87Q9.73 6.87 9.73 6.80L9.73 6.80L9.73 5.24L9.73 5.24Q9.73 5.14 9.79 5.08L9.79 5.08L9.79 5.08Q9.84 5.03 9.94 5.03L9.94 5.03L10.81 5.03L10.81 5.03Q10.91 5.03 10.96 5.08L10.96 5.08L10.96 5.08Q11.02 5.14 11.02 5.24L11.02 5.24L11.02 6.80L11.02 6.80Q11.02 6.87 11.09 6.87L11.09 6.87L12.52 6.87L12.52 6.87Q12.61 6.87 12.67 6.93L12.67 6.93L12.67 6.93Q12.73 6.99 12.73 7.08L12.73 7.08L12.73 7.77ZM18.62 7.08L18.62 7.08Q18.62 6.99 18.68 6.93L18.68 6.93L18.68 6.93Q18.73 6.87 18.83 6.87L18.83 6.87L19.74 6.87L19.74 6.87Q19.84 6.87 19.89 6.93L19.89 6.93L19.89 6.93Q19.95 6.99 19.95 7.08L19.95 7.08L19.95 13.79L19.95 13.79Q19.95 13.89 19.89 13.94L19.89 13.94L19.89 13.94Q19.84 14 19.74 14L19.74 14L18.83 14L18.83 14Q18.73 14 18.68 13.94L18.68 13.94L18.68 13.94Q18.62 13.89 18.62 13.79L18.62 13.79L18.62 13.37L18.62 13.37Q18.62 13.33 18.59 13.32L18.59 13.32L18.59 13.32Q18.56 13.31 18.54 13.34L18.54 13.34L18.54 13.34Q17.98 14.10 16.83 14.10L16.83 14.10L16.83 14.10Q16.14 14.10 15.56 13.83L15.56 13.83L15.56 13.83Q14.98 13.57 14.63 13.05L14.63 13.05L14.63 13.05Q14.28 12.53 14.28 11.79L14.28 11.79L14.28 7.08L14.28 7.08Q14.28 6.99 14.34 6.93L14.34 6.93L14.34 6.93Q14.39 6.87 14.49 6.87L14.49 6.87L15.40 6.87L15.40 6.87Q15.50 6.87 15.55 6.93L15.55 6.93L15.55 6.93Q15.61 6.99 15.61 7.08L15.61 7.08L15.61 11.37L15.61 11.37Q15.61 12.10 15.99 12.52L15.99 12.52L15.99 12.52Q16.38 12.94 17.08 12.94L17.08 12.94L17.08 12.94Q17.78 12.94 18.20 12.51L18.20 12.51L18.20 12.51Q18.62 12.08 18.62 11.37L18.62 11.37L18.62 7.08ZM26.25 4.41L26.25 4.41Q26.25 4.31 26.31 4.26L26.31 4.26L26.31 4.26Q26.36 4.20 26.46 4.20L26.46 4.20L27.38 4.20L27.38 4.20Q27.48 4.20 27.54 4.26L27.54 4.26L27.54 4.26Q27.59 4.31 27.59 4.41L27.59 4.41L27.59 13.79L27.59 13.79Q27.59 13.89 27.54 13.94L27.54 13.94L27.54 13.94Q27.48 14 27.38 14L27.38 14L26.46 14L26.46 14Q26.36 14 26.31 13.94L26.31 13.94L26.31 13.94Q26.25 13.89 26.25 13.79L26.25 13.79L26.25 13.43L26.25 13.43Q26.25 13.38 26.22 13.37L26.22 13.37L26.22 13.37Q26.19 13.36 26.17 13.38L26.17 13.38L26.17 13.38Q25.86 13.73 25.45 13.92L25.45 13.92L25.45 13.92Q25.03 14.11 24.54 14.11L24.54 14.11L24.54 14.11Q23.53 14.11 22.87 13.62L22.87 13.62L22.87 13.62Q22.20 13.12 21.90 12.21L21.90 12.21L21.90 12.21Q21.64 11.51 21.64 10.42L21.64 10.42L21.64 10.42Q21.64 9.39 21.85 8.72L21.85 8.72L21.85 8.72Q22.15 7.80 22.83 7.28L22.83 7.28L22.83 7.28Q23.51 6.76 24.54 6.76L24.54 6.76L24.54 6.76Q25.03 6.76 25.45 6.94L25.45 6.94L25.45 6.94Q25.86 7.13 26.17 7.48L26.17 7.48L26.17 7.48Q26.19 7.50 26.22 7.50L26.22 7.50L26.22 7.50Q26.25 7.49 26.25 7.45L26.25 7.45L26.25 4.41ZM25.90 12.19L25.90 12.19Q26.24 11.58 26.24 10.43L26.24 10.43L26.24 10.43Q26.24 9.28 25.87 8.64L25.87 8.64L25.87 8.64Q25.47 7.92 24.68 7.92L24.68 7.92L24.68 7.92Q23.87 7.92 23.44 8.60L23.44 8.60L23.44 8.60Q22.99 9.30 22.99 10.44L22.99 10.44L22.99 10.44Q22.99 11.52 23.34 12.18L23.34 12.18L23.34 12.18Q23.74 12.95 24.68 12.95L24.68 12.95L24.68 12.95Q25.48 12.95 25.90 12.19L25.90 12.19ZM29.36 16.80L29.36 16.80Q29.32 16.80 29.29 16.74L29.29 16.74L29.29 16.74Q29.26 16.69 29.26 16.59L29.26 16.59L29.26 15.88L29.26 15.88Q29.26 15.67 29.34 15.67L29.34 15.67L29.43 15.67L29.43 15.67Q29.99 15.67 30.30 15.54L30.30 15.54L30.30 15.54Q30.62 15.41 30.84 15.07L30.84 15.07L30.84 15.07Q31.05 14.73 31.25 14.04L31.25 14.04L31.25 14.04Q31.26 14.01 31.25 13.96L31.25 13.96L28.94 7.11L28.94 7.11Q28.92 7.08 28.92 7.03L28.92 7.03L28.92 7.03Q28.92 6.87 29.11 6.87L29.11 6.87L30.09 6.87L30.09 6.87Q30.27 6.87 30.32 7.04L30.32 7.04L31.91 12.08L31.91 12.08Q31.92 12.14 31.95 12.14L31.95 12.14L31.95 12.14Q31.98 12.14 31.99 12.08L31.99 12.08L33.52 7.06L33.52 7.06Q33.53 6.97 33.60 6.92L33.60 6.92L33.60 6.92Q33.67 6.87 33.75 6.87L33.75 6.87L34.73 6.87L34.73 6.87Q34.85 6.87 34.89 6.94L34.89 6.94L34.89 6.94Q34.93 7 34.90 7.11L34.90 7.11L32.40 14.49L32.40 14.49Q32.07 15.46 31.75 15.93L31.75 15.93L31.75 15.93Q31.43 16.41 30.91 16.60L30.91 16.60L30.91 16.60Q30.39 16.80 29.46 16.80L29.46 16.80L29.36 16.80ZM38.93 14L38.93 14Q38.75 14 38.70 13.83L38.70 13.83L35.73 4.44L35.73 4.44Q35.71 4.41 35.71 4.35L35.71 4.35L35.71 4.35Q35.71 4.20 35.91 4.20L35.91 4.20L36.90 4.20L36.90 4.20Q36.99 4.20 37.06 4.25L37.06 4.25L37.06 4.25Q37.13 4.30 37.14 4.38L37.14 4.38L39.44 12.01L39.44 12.01Q39.45 12.07 39.48 12.07L39.48 12.07L39.48 12.07Q39.51 12.07 39.52 12.01L39.52 12.01L41.80 4.38L41.80 4.38Q41.82 4.30 41.89 4.25L41.89 4.25L41.89 4.25Q41.96 4.20 42.04 4.20L42.04 4.20L43.01 4.20L43.01 4.20Q43.26 4.20 43.19 4.44L43.19 4.44L40.19 13.83L40.19 13.83Q40.14 14 39.96 14L39.96 14L38.93 14ZM45.43 5.81L45.43 5.81Q45.02 5.81 44.77 5.56L44.77 5.56L44.77 5.56Q44.51 5.32 44.51 4.93L44.51 4.93L44.51 4.93Q44.51 4.54 44.77 4.29L44.77 4.29L44.77 4.29Q45.02 4.05 45.43 4.05L45.43 4.05L45.43 4.05Q45.84 4.05 46.09 4.29L46.09 4.29L46.09 4.29Q46.34 4.54 46.34 4.93L46.34 4.93L46.34 4.93Q46.34 5.32 46.09 5.56L46.09 5.56L46.09 5.56Q45.84 5.81 45.43 5.81L45.43 5.81ZM44.97 14L44.97 14Q44.87 14 44.81 13.94L44.81 13.94L44.81 13.94Q44.76 13.89 44.76 13.79L44.76 13.79L44.76 7.08L44.76 7.08Q44.76 6.99 44.81 6.93L44.81 6.93L44.81 6.93Q44.87 6.87 44.97 6.87L44.97 6.87L45.89 6.87L45.89 6.87Q45.99 6.87 46.05 6.93L46.05 6.93L46.05 6.93Q46.10 6.99 46.10 7.08L46.10 7.08L46.10 13.79L46.10 13.79Q46.10 13.89 46.05 13.94L46.05 13.94L46.05 13.94Q45.99 14 45.89 14L45.89 14L44.97 14ZM51.16 12.96L51.16 12.96Q52.29 12.95 52.78 12.08L52.78 12.08L52.78 12.08Q52.85 11.96 52.93 11.96L52.93 11.96L52.93 11.96Q53.00 11.96 53.06 12.00L53.06 12.00L53.63 12.35L53.63 12.35Q53.75 12.42 53.75 12.53L53.75 12.53L53.72 12.64L53.72 12.64Q53.34 13.33 52.65 13.72L52.65 13.72L52.65 13.72Q51.95 14.11 51.03 14.11L51.03 14.11L51.03 14.11Q50.04 14.11 49.35 13.67L49.35 13.67L49.35 13.67Q48.66 13.23 48.31 12.40L48.31 12.40L48.31 12.40Q47.96 11.55 47.96 10.40L47.96 10.40L47.96 10.40Q47.96 9.38 48.12 8.85L48.12 8.85L48.12 8.85Q48.37 7.88 49.13 7.32L49.13 7.32L49.13 7.32Q49.88 6.76 50.96 6.76L50.96 6.76L50.96 6.76Q52.29 6.76 52.99 7.46L52.99 7.46L52.99 7.46Q53.69 8.15 53.90 9.46L53.90 9.46L53.90 9.46Q53.97 9.98 54.00 10.72L54.00 10.72L54.00 10.72Q54.00 10.93 53.79 10.93L53.79 10.93L49.36 10.93L49.36 10.93Q49.29 10.93 49.29 11.00L49.29 11.00L49.29 11.00Q49.32 11.54 49.39 11.76L49.39 11.76L49.39 11.76Q49.55 12.32 50.01 12.64L50.01 12.64L50.01 12.64Q50.47 12.96 51.16 12.96L51.16 12.96ZM50.96 7.92L50.96 7.92Q50.34 7.92 49.96 8.22L49.96 8.22L49.96 8.22Q49.57 8.51 49.43 9.03L49.43 9.03L49.43 9.03Q49.34 9.34 49.31 9.81L49.31 9.81L49.31 9.81Q49.31 9.88 49.38 9.88L49.38 9.88L52.56 9.88L52.56 9.88Q52.63 9.88 52.63 9.81L52.63 9.81L52.63 9.81Q52.60 9.35 52.54 9.13L52.54 9.13L52.54 9.13Q52.40 8.58 51.99 8.25L51.99 8.25L51.99 8.25Q51.58 7.92 50.96 7.92L50.96 7.92ZM57.33 14L57.33 14Q57.13 14 57.09 13.82L57.09 13.82L55.13 7.11L55.13 7.11Q55.12 7.08 55.12 7.04L55.12 7.04L55.12 7.04Q55.12 6.87 55.31 6.87L55.31 6.87L56.27 6.87L56.27 6.87Q56.45 6.87 56.49 7.06L56.49 7.06L57.79 12.05L57.79 12.05Q57.81 12.10 57.83 12.10L57.83 12.10L57.83 12.10Q57.86 12.10 57.88 12.05L57.88 12.05L59.21 7.07L59.21 7.07Q59.25 6.89 59.43 6.89L59.43 6.89L60.30 6.89L60.30 6.89Q60.48 6.89 60.52 7.07L60.52 7.07L61.89 12.07L61.89 12.07Q61.91 12.11 61.94 12.11L61.94 12.11L61.94 12.11Q61.96 12.11 61.98 12.07L61.98 12.07L63.34 7.06L63.34 7.06Q63.38 6.87 63.56 6.87L63.56 6.87L64.51 6.89L64.51 6.89Q64.62 6.89 64.67 6.95L64.67 6.95L64.67 6.95Q64.72 7.01 64.69 7.13L64.69 7.13L62.71 13.82L62.71 13.82Q62.69 13.90 62.62 13.95L62.62 13.95L62.62 13.95Q62.55 14 62.47 14L62.47 14L61.49 14L61.49 14Q61.29 14 61.25 13.82L61.25 13.82L59.91 9.18L59.91 9.18Q59.89 9.14 59.86 9.14L59.86 9.14L59.86 9.14Q59.84 9.14 59.82 9.18L59.82 9.18L58.55 13.82L58.55 13.82Q58.51 14 58.32 14L58.32 14L57.33 14Z"></path></g><!----><g data-v-423bf9ae="" id="b56e447a-5561-4ec0-b98a-fc039200b6ff" transform="matrix(1.0376111348470052,0,0,1.0376111348470052,99.41244249720539,-4.620052969655809)" stroke="none" fill="black"><path d="M29.168 81.498V46.742l22.164-11.781a2.5 2.5 0 1 0-2.348-4.415L25.868 42.833c-.864.46-1.341.792-1.606 1.729-.172.547-.094 1.376-.094 1.861v35.074c-2.979 1.038-5.125 3.867-5.125 7.195v9.25h15.25v-9.25c0-3.327-2.147-6.156-5.125-7.194zM20.168 48.79L17.5 47.332v6.533c0 3.068.955 5.986 2.668 8.634V48.79z"></path><path d="M49.999 65.094l-2.538-1.388-14.293-8.404v17.169c4.91 1.992 10.67 3.14 16.832 3.14 17.949 0 32.5-9.734 32.5-21.745v-6.534L52.537 63.706l-2.538 1.388z"></path><path d="M50 4.557L.293 32.002l.209.115 20.001 10.931c.805-2.468 2.602-3.442 3.487-3.913l23.116-12.287a6.494 6.494 0 0 1 8.792 2.691c1.68 3.166.473 7.108-2.689 8.789L33.167 48.98l16.832 10.188 49.559-27.084.149-.082L50 4.557z"></path><path d="M50.066 30.098c.06-.002.12 0 .18.001-.031-.001-.061-.012-.092-.012-.029 0-.058.01-.088.011z"></path></g><!----></svg>